<svg xmlns="http://www.w3.org/2000/svg" width="30" height="30" viewBox="0 0 30 30" fill="none"><g id="Group 66"><path id="Vector" d="M28.0547 2.49876C27.1525 1.60695 25.9663 1.05944 24.7023 0.951395C23.4383 0.843349 22.1765 1.18159 21.136 1.90734C24.4806 3.29987 27.2128 5.84884 28.8339 9.08888C29.4596 8.06147 29.7228 6.85398 29.5816 5.65935C29.4403 4.46472 28.9027 3.35192 28.0547 2.49876Z" fill="#50796D"></path><path id="Vector_2" d="M9.23242 2.11392C8.19624 1.29098 6.89468 0.875784 5.57337 0.946692C4.25206 1.0176 3.00241 1.56971 2.06026 2.49882C1.12589 3.43937 0.572495 4.69235 0.506635 6.01649C0.440774 7.34064 0.867099 8.64234 1.70353 9.67097C3.2098 6.31962 5.88671 3.6327 9.23242 2.11392Z" fill="#50796D"></path><path id="Vector_3" d="M15.4095 2.64899C12.8146 2.65435 10.2794 3.42772 8.1234 4.87164C5.96737 6.31555 4.28702 8.36538 3.29412 10.7628C2.30123 13.1602 2.04024 15.7978 2.54404 18.3433C3.04784 20.8888 4.29388 23.2282 6.12512 25.0667L3.73127 27.4605C3.64436 27.5493 3.57578 27.6543 3.52945 27.7696C3.48312 27.8848 3.45995 28.0081 3.46126 28.1323C3.46257 28.2565 3.48833 28.3793 3.53707 28.4935C3.58582 28.6078 3.65659 28.7113 3.74535 28.7983C3.83412 28.8852 3.93913 28.9538 4.05439 29.0001C4.16966 29.0464 4.29292 29.0696 4.41714 29.0683C4.54136 29.067 4.66411 29.0412 4.77837 28.9925C4.89264 28.9437 4.99618 28.8729 5.08309 28.7842L7.58021 26.2871C9.86378 28.0151 12.6524 28.944 15.5161 28.9304C18.3798 28.9168 21.1595 27.9616 23.4265 26.212L25.9988 28.7842C26.1783 28.938 26.4094 29.0183 26.6456 29.0092C26.8819 29.0001 27.106 28.9021 27.2732 28.735C27.4404 28.5678 27.5383 28.3436 27.5474 28.1074C27.5566 27.8711 27.4762 27.6401 27.3224 27.4605L24.7971 24.9728C26.6026 23.1235 27.8228 20.7828 28.305 18.2436C28.7872 15.7045 28.51 13.0795 27.5081 10.697C26.5062 8.31456 24.8241 6.28038 22.6722 4.84891C20.5203 3.41744 17.994 2.65223 15.4095 2.64899ZM22.4221 19.0116C22.3145 19.2353 22.1228 19.4072 21.8888 19.4899C21.6549 19.5726 21.3977 19.5593 21.1735 19.4529L14.4707 16.2047V7.99055C14.4707 7.74158 14.5696 7.5028 14.7457 7.32675C14.9217 7.1507 15.1605 7.05179 15.4095 7.05179C15.6585 7.05179 15.8973 7.1507 16.0733 7.32675C16.2494 7.5028 16.3483 7.74158 16.3483 7.99055V15.0313L21.9808 17.7631C22.0932 17.8146 22.1943 17.8879 22.2783 17.9786C22.3623 18.0694 22.4275 18.1758 22.4703 18.2918C22.513 18.4078 22.5324 18.5311 22.5273 18.6547C22.5223 18.7782 22.4929 18.8995 22.4408 19.0116H22.4221Z" fill="#50796D"></path></g></svg>