<svg xmlns="http://www.w3.org/2000/svg" width="35" height="30" viewBox="0 0 35 30" fill="none"><path id="Vector" d="M10.7 30C9.6746 30 8.79762 29.6183 8.06905 28.855C7.34048 28.0917 6.97619 27.1817 6.97619 26.125V10.6667L4.02143 3.33333H0.5V0H6.20714L8.87857 6.66667H32.8C33.4206 6.66667 33.8929 6.93056 34.2167 7.45833C34.5405 7.98611 34.554 8.52778 34.2571 9.08333L29.6429 18.375C31.019 18.5972 32.1729 19.25 33.1044 20.3333C34.0359 21.4167 34.5011 22.6944 34.5 24.1667C34.5 25.7778 33.9538 27.1528 32.8615 28.2917C31.7692 29.4306 30.44 30 28.8738 30C27.2817 30 25.9396 29.4306 24.8472 28.2917C23.7549 27.1528 23.2082 25.7778 23.2071 24.1667C23.2071 23.6111 23.2746 23.0972 23.4095 22.625C23.5444 22.1528 23.7333 21.6944 23.9762 21.25L18.6738 20.75L13.8167 28.25C13.4659 28.8056 13.0142 29.2361 12.4615 29.5417C11.9089 29.8472 11.3217 30 10.7 30ZM10.7405 26.625C10.7944 26.625 10.9159 26.5556 11.1048 26.4167L15.031 20.4167C13.7087 20.2778 12.6698 19.9517 11.9143 19.4383C11.1587 18.925 10.5921 18.39 10.2143 17.8333V26.1667C10.2143 26.3056 10.2683 26.4167 10.3762 26.5C10.4841 26.5833 10.6056 26.625 10.7405 26.625ZM28.8333 26.6667C29.5349 26.6667 30.1151 26.4239 30.5738 25.9383C31.0325 25.4528 31.2619 24.8622 31.2619 24.1667C31.2619 23.4444 31.0325 22.8472 30.5738 22.375C30.1151 21.9028 29.5349 21.6667 28.8333 21.6667C28.1587 21.6667 27.5856 21.9028 27.1139 22.375C26.6422 22.8472 26.4058 23.4444 26.4048 24.1667C26.4048 24.8611 26.6411 25.4517 27.1139 25.9383C27.5867 26.425 28.1598 26.6678 28.8333 26.6667Z" fill="#50796D"></path></svg>