<svg xmlns="http://www.w3.org/2000/svg" width="21" height="28" viewBox="0 0 21 28" fill="none"><path id="Vector" d="M2.625 27.5C1.90312 27.5 1.28537 27.2484 0.77175 26.7453C0.258125 26.2421 0.000875 25.6366 0 24.9286V12.0714C0 11.3643 0.25725 10.7591 0.77175 10.256C1.28625 9.75286 1.904 9.50086 2.625 9.5H3.9375V6.92857C3.9375 5.15 4.57756 3.63414 5.85769 2.381C7.13781 1.12786 8.68525 0.500857 10.5 0.5C12.3156 0.5 13.8635 1.127 15.1436 2.381C16.4237 3.635 17.0634 5.15086 17.0625 6.92857V9.5H18.375C19.0969 9.5 19.7151 9.752 20.2296 10.256C20.7441 10.76 21.0009 11.3651 21 12.0714V24.9286C21 25.6357 20.7432 26.2413 20.2296 26.7453C19.7159 27.2493 19.0977 27.5009 18.375 27.5H2.625ZM10.5 21.0714C11.2219 21.0714 11.8401 20.8199 12.3546 20.3167C12.8691 19.8136 13.1259 19.208 13.125 18.5C13.125 17.7929 12.8682 17.1877 12.3546 16.6846C11.8409 16.1814 11.2227 15.9294 10.5 15.9286C9.77812 15.9286 9.16037 16.1806 8.64675 16.6846C8.13312 17.1886 7.87587 17.7937 7.875 18.5C7.875 19.2071 8.13225 19.8127 8.64675 20.3167C9.16125 20.8207 9.779 21.0723 10.5 21.0714ZM6.5625 9.5H14.4375V6.92857C14.4375 5.85714 14.0547 4.94643 13.2891 4.19643C12.5234 3.44643 11.5937 3.07143 10.5 3.07143C9.40625 3.07143 8.47656 3.44643 7.71094 4.19643C6.94531 4.94643 6.5625 5.85714 6.5625 6.92857V9.5Z" fill="#63877C"></path></svg>