<svg xmlns="http://www.w3.org/2000/svg" width="161" height="19" viewBox="0 0 161 19" fill="none"><path d="M161 9C155.011 9.79268 150.224 13.8171 149 19C154.989 18.2073 159.776 14.1829 161 9Z" fill="#F5B463"></path><path d="M29.0381 0H22.3611L16.0266 18.8995H20.1165L21.7572 14.6209H29.9512L31.4682 18.9234L35.4535 18.8995L29.0381 0ZM22.423 11.4431L25.8518 2.70403L29.2806 11.4431H22.4182H22.423Z" fill="white"></path><path d="M53.9101 6.11159C53.9101 5.94887 53.9101 5.79093 53.8959 5.63778C53.7247 2.44559 50.9949 0 47.8181 0H38.0215V18.9234H42.0495V12.5438H45.6924L49.7394 18.8995H53.9101L49.7822 12.2184C49.7822 12.2184 53.9101 11.2899 53.9101 6.1068V6.11159ZM47.7991 9.46171H41.807V2.70882H47.7991C47.7991 2.70882 50.6192 2.97204 50.5907 6.08766C50.5574 9.42343 47.7991 9.4665 47.7991 9.4665V9.46171Z" fill="white"></path><path d="M109.913 5.63778C109.742 2.44559 107.012 0 103.835 0H94.0383V18.9234H98.0664V12.5438L105.956 12.5295H106.089C106.089 12.5295 109.932 11.2899 109.932 6.11159C109.932 5.94887 109.932 5.79093 109.917 5.63778H109.913ZM103.816 9.46171H97.8238V2.70882H103.816C103.816 2.70882 106.636 2.97204 106.608 6.08766C106.574 9.42343 103.816 9.4665 103.816 9.4665V9.46171Z" fill="white"></path><path d="M121.906 0C116.361 0 111.867 4.23552 111.867 9.46171C111.867 14.6879 116.361 18.9234 121.906 18.9234C127.452 18.9234 131.946 14.6879 131.946 9.46171C131.946 4.23552 127.452 0 121.906 0ZM121.906 15.5733C118.325 15.5733 115.425 12.8358 115.425 9.46171C115.425 6.08766 118.325 3.35013 121.906 3.35013C125.488 3.35013 128.388 6.08766 128.388 9.46171C128.388 12.8358 125.488 15.5733 121.906 15.5733Z" fill="white"></path><path d="M148.781 0H133.239V3.62292H139.046V18.8995H142.751V3.62292H148.781V0Z" fill="white"></path><path d="M65.2238 0H56.0168V18.8995H65.7897C70.8735 18.8995 74.1454 14.2667 74.1454 9.15063C74.1454 4.03451 70.3076 0 65.2238 0ZM65.4949 14.9846H59.7643V3.91486H65.162C68.139 3.91486 70.3884 6.27431 70.3884 9.27506C70.3884 12.2758 68.4719 14.9846 65.4949 14.9846Z" fill="white"></path><path d="M91.3085 3.58463V0H76.9797V0.0191436V3.58463V7.65743V11.2421V15.3149V18.8995V19H80.5417V18.8995H91.3085V15.3149H80.5417V11.2421H90.1006V7.65743H80.5417V3.58463H91.3085Z" fill="white"></path><path d="M14.5713 13.5249V0H12.1792C10.7906 0 9.44949 0.708312 8.80748 1.94786C8.70285 2.14887 8.622 2.35466 8.56018 2.56524C8.51262 2.42645 8.45556 2.29244 8.39849 2.15844C7.78025 0.813602 6.38209 0 4.90784 0H2.26845V3.74735H10.686V12.7065C10.686 12.7065 10.686 15.3962 8.01328 15.3962C5.3406 15.3962 4.04706 12.7065 4.04706 12.7065H0C0 12.7065 0.808462 19.3877 8.09413 18.8995C15.3798 18.4113 14.5713 13.5249 14.5713 13.5249Z" fill="white"></path></svg>